<?xml version="1.0" encoding="UTF-8" standalone="no"?>
<svg
   version="1.0"
   width="710.16583pt"
   height="714.48895pt"
   viewBox="0 0 710.16583 714.48895"
   preserveAspectRatio="xMidYMid"
   id="svg4"
   sodipodi:docname="favicon (Copy).svg"
   inkscape:version="1.4.3 (0d15f75042, 2025-12-25)"
   inkscape:export-filename="favicon (Copy).png"
   inkscape:export-xdpi="200"
   inkscape:export-ydpi="200"
   xmlns:inkscape="http://www.inkscape.org/namespaces/inkscape"
   xmlns:sodipodi="http://sodipodi.sourceforge.net/DTD/sodipodi-0.dtd"
   xmlns="http://www.w3.org/2000/svg"
   xmlns:svg="http://www.w3.org/2000/svg">
  <sodipodi:namedview
     id="namedview1"
     pagecolor="#ffffff"
     bordercolor="#000000"
     borderopacity="0.25"
     inkscape:showpageshadow="2"
     inkscape:pageopacity="0.0"
     inkscape:pagecheckerboard="0"
     inkscape:deskcolor="#d1d1d1"
     inkscape:document-units="pt"
     inkscape:zoom="0.3506657"
     inkscape:cx="-336.50283"
     inkscape:cy="-4.2775783"
     inkscape:window-width="2306"
     inkscape:window-height="1550"
     inkscape:window-x="0"
     inkscape:window-y="0"
     inkscape:window-maximized="1"
     inkscape:current-layer="svg4" />
  <defs
     id="defs4" />
  <g
     transform="matrix(0.1,0,0,-0.1,-1053.8732,1135.7669)"
     fill="#737994"
     stroke="none"
     id="g4"><path
   d="m 16030,11349 c -14,-5 -163,-156 -330,-335 -572,-611 -550,-585 -550,-641 0,-50 16,-80 76,-143 l 55,-58 -88,-64 c -320,-234 -653,-419 -978,-545 -122,-47 -374,-119 -518,-148 -64,-14 -125,-29 -135,-34 -39,-21 -53,-52 -78,-166 -123,-583 -315,-1246 -629,-2176 -286,-847 -316,-941 -321,-1009 -5,-54 -2,-71 16,-98 20,-33 87,-71 123,-72 32,0 152,53 537,240 1180,573 1827,836 2463,1000 82,21 159,46 172,54 39,26 53,66 70,202 30,247 122,598 222,854 80,206 298,632 372,729 l 19,24 66,-56 c 74,-63 97,-72 158,-64 51,7 38,-6 452,442 466,503 436,467 436,525 0,67 -43,112 -117,123 -38,6 -46,4 -79,-25 -21,-18 -190,-196 -376,-395 -187,-200 -343,-363 -349,-363 -5,0 -86,75 -181,168 -95,92 -330,320 -523,507 -488,473 -555,539 -555,547 0,4 73,85 163,180 256,272 540,580 565,612 74,96 -40,229 -158,185 z m -196,-1711 c 8,-13 -22,-50 -160,-195 -93,-98 -257,-272 -364,-388 -107,-115 -231,-248 -275,-295 -44,-47 -97,-104 -118,-128 l -38,-43 -63,15 c -83,21 -141,20 -219,-4 -113,-35 -206,-122 -249,-232 -29,-74 -29,-193 0,-268 l 22,-55 -44,-45 c -42,-44 -368,-393 -891,-955 -143,-154 -305,-327 -359,-385 -54,-58 -105,-112 -113,-120 -7,-8 23,91 67,220 285,827 562,1757 656,2203 19,94 40,179 45,189 5,10 20,18 32,18 37,0 295,66 392,100 455,161 933,420 1250,678 l 60,49 179,-172 c 99,-94 184,-178 190,-187 z m 506,-495 c 0,-2 -26,-43 -59,-91 -171,-254 -354,-638 -463,-967 -66,-200 -158,-600 -158,-686 0,-15 -4,-30 -8,-33 -4,-2 -82,-25 -172,-50 -506,-139 -1202,-414 -1950,-771 -255,-122 -351,-167 -365,-173 -5,-3 24,31 65,74 41,44 154,165 250,269 96,104 276,298 400,430 227,243 563,604 636,683 l 39,43 48,-17 c 75,-26 215,-16 290,20 71,34 147,107 181,173 47,94 54,219 17,316 -6,16 -11,37 -11,47 0,17 156,190 595,660 105,113 227,244 271,291 l 79,86 157,-151 c 87,-82 158,-152 158,-153 z"
   id="path1" />
<path
   d="m 10905,6846 c -146,-33 -251,-117 -317,-255 -54,-110 -63,-209 -30,-318 59,-193 205,-307 417,-327 210,-20 636,54 983,172 l 84,28 -144,139 c -203,197 -476,415 -618,493 -122,68 -263,93 -375,68 z"
   id="path2"
   style="fill:#e78284;fill-opacity:1" />
<path
   d="m 13238.797,4249.6144 c 138.524,-56.7101 272.716,-48.1269 405.933,27.0601 107.328,59.1336 171.484,135.0674 206.972,243.283 62.371,191.9374 8.162,369.0629 -154.027,507.0441 -160.55,136.8341 -551.953,320.5604 -903.881,422.9315 l -84.869,25.2442 38.231,-196.4572 c 53.293,-277.8089 151.882,-612.9704 223.462,-758.3122 60.934,-125.6786 162.095,-227.0317 268.179,-270.7935 z"
   id="path2-5"
   style="fill:#a6d189;fill-opacity:1" />
/&gt;
    <path
   d="m 12025,5515 c -230,-59 -560,-184 -716,-272 -117,-65 -172,-120 -221,-220 -39,-79 -43,-92 -46,-182 -4,-115 15,-188 73,-275 158,-239 493,-272 705,-70 105,100 215,346 314,706 43,153 76,299 76,334 0,21 -40,17 -185,-21 z"
   id="path3"
   style="fill:#e5c890;fill-opacity:1" />
</g>
</svg>
